<svg width="16" height="20" viewBox="0 0 16 20" fill="none" xmlns="http://www.w3.org/2000/svg">
<path d="M4.66665 12.1667H11.3333M4.66665 8.83333H6.33331M4.66665 15.5H7.99998M6.33331 3H2.99998C2.55795 3 2.13403 3.17559 1.82147 3.48815C1.50891 3.80071 1.33331 4.22464 1.33331 4.66667V17.1667C1.33331 17.6087 1.50891 18.0326 1.82147 18.3452C2.13403 18.6577 2.55795 18.8333 2.99998 18.8333H13C13.442 18.8333 13.8659 18.6577 14.1785 18.3452C14.4911 18.0326 14.6666 17.6087 14.6666 17.1667V4.66667C14.6666 4.22464 14.4911 3.80071 14.1785 3.48815C13.8659 3.17559 13.442 3 13 3H10.0833M6.33331 3V1.33333M6.33331 3V4.66667" stroke="#142850" stroke-width="1.25" stroke-linecap="round" stroke-linejoin="round"/>
</svg>
