<svg width="20" height="14" viewBox="0 0 20 14" fill="none" xmlns="http://www.w3.org/2000/svg">
<path d="M13.8296 6.69607C15.4071 6.69607 16.7643 5.2875 16.7643 3.45321C16.7643 1.64107 15.4 0.298569 13.8296 0.298569C12.2596 0.298569 10.895 1.67035 10.895 3.46785C10.895 5.2875 12.2521 6.69607 13.8296 6.69607ZM5.385 6.865C6.74964 6.865 7.93857 5.63214 7.93857 4.04C7.93857 2.46285 6.74214 1.29607 5.385 1.29607C4.02071 1.29607 2.81714 2.49214 2.82464 4.055C2.82464 5.63214 4.01321 6.865 5.38536 6.865M1.29143 13.49H6.86714C6.10429 12.3821 7.03607 10.1518 8.61357 8.93393C7.79929 8.39107 6.74964 7.9875 5.37786 7.9875C2.06893 7.98714 0 10.43 0 12.4625C0 13.1232 0.366786 13.49 1.29143 13.49ZM9.215 13.49H18.4371C19.5889 13.49 20 13.1596 20 12.5139C20 10.6211 17.63 8.00928 13.8225 8.00928C10.0221 8.00928 7.65214 10.6211 7.65214 12.5143C7.65214 13.1596 8.06286 13.49 9.215 13.49Z" fill="#142850"/>
</svg>
