<svg width="22" height="23" viewBox="0 0 22 23" fill="none" xmlns="http://www.w3.org/2000/svg">
<path d="M18.7778 4.83333H3.22222C1.99492 4.83333 1 5.82826 1 7.05556V19.2778C1 20.5051 1.99492 21.5 3.22222 21.5H18.7778C20.0051 21.5 21 20.5051 21 19.2778V7.05556C21 5.82826 20.0051 4.83333 18.7778 4.83333Z" stroke="#142850" stroke-width="1.66667"/>
<path d="M1 9.27778C1 7.18222 1 6.13556 1.65111 5.48444C2.30222 4.83333 3.34889 4.83333 5.44444 4.83333H16.5556C18.6511 4.83333 19.6978 4.83333 20.3489 5.48444C21 6.13556 21 7.18222 21 9.27778H1Z" fill="#142850"/>
<path d="M5.44446 1.5V4.83333M16.5556 1.5V4.83333" stroke="#142850" stroke-width="1.66667" stroke-linecap="round"/>
<path d="M9.33335 11.5H6.00001C5.69319 11.5 5.44446 11.7487 5.44446 12.0556V13.1667C5.44446 13.4735 5.69319 13.7222 6.00001 13.7222H9.33335C9.64017 13.7222 9.8889 13.4735 9.8889 13.1667V12.0556C9.8889 11.7487 9.64017 11.5 9.33335 11.5Z" fill="#142850"/>
<path d="M9.33335 15.9445H6.00001C5.69319 15.9445 5.44446 16.1932 5.44446 16.5V17.6111C5.44446 17.9179 5.69319 18.1667 6.00001 18.1667H9.33335C9.64017 18.1667 9.8889 17.9179 9.8889 17.6111V16.5C9.8889 16.1932 9.64017 15.9445 9.33335 15.9445Z" fill="#142850"/>
<path d="M16 11.5H12.6667C12.3599 11.5 12.1111 11.7487 12.1111 12.0556V13.1667C12.1111 13.4735 12.3599 13.7222 12.6667 13.7222H16C16.3069 13.7222 16.5556 13.4735 16.5556 13.1667V12.0556C16.5556 11.7487 16.3069 11.5 16 11.5Z" fill="#142850"/>
<path d="M16 15.9445H12.6667C12.3599 15.9445 12.1111 16.1932 12.1111 16.5V17.6111C12.1111 17.9179 12.3599 18.1667 12.6667 18.1667H16C16.3069 18.1667 16.5556 17.9179 16.5556 17.6111V16.5C16.5556 16.1932 16.3069 15.9445 16 15.9445Z" fill="#142850"/>
</svg>
