<svg width="12" height="17" viewBox="0 0 12 17" fill="none" xmlns="http://www.w3.org/2000/svg">
<path d="M11.225 3.5C12.0667 5.30833 11.875 7.44166 10.95 9.175C10.1667 10.5833 9.04165 11.775 8.08332 13.0833C7.66665 13.6667 7.24998 14.2917 6.94165 14.9667C6.83332 15.1917 6.75832 15.425 6.67498 15.6583C6.59165 15.8917 6.51665 16.125 6.44165 16.3583C6.36665 16.575 6.27498 16.8333 5.99998 16.8333C5.67498 16.8333 5.58332 16.4667 5.51665 16.2167C5.31665 15.6083 5.11665 15.025 4.80832 14.4667C4.45832 13.8083 4.01665 13.2 3.56665 12.6083L11.225 3.5ZM3.59998 5.51666L0.849984 8.78333C1.35832 9.85833 2.11665 10.775 2.84165 11.6917C3.01665 11.9 3.19165 12.1167 3.35832 12.3417L6.83332 8.225L6.79998 8.23333C5.58332 8.65 4.23332 8.03333 3.74998 6.83333C3.68332 6.69166 3.63332 6.525 3.59998 6.35833C3.55336 6.08251 3.55336 5.80082 3.59998 5.525V5.51666ZM1.48332 2.35L1.47498 2.35833C0.124984 4.06666 -0.108349 6.44166 0.699984 8.45L4.02498 4.5L3.98332 4.45833L1.48332 2.35ZM7.84998 0.466664L5.16665 3.64166L5.19998 3.63333C6.31665 3.25 7.56665 3.73333 8.13332 4.75C8.25832 4.98333 8.35832 5.23333 8.39165 5.48333C8.44165 5.8 8.45832 6.025 8.39998 6.33333V6.34166L11.0667 3.175C10.3688 1.90844 9.22546 0.946218 7.85832 0.474997L7.84998 0.466664ZM4.24165 4.24166L7.49998 0.366664L7.46665 0.358331C6.98332 0.233331 6.49165 0.166664 5.99998 0.166664C4.35832 0.166664 2.80832 0.874997 1.70832 2.09166L1.69165 2.1L4.24165 4.24166Z" fill="#142850"/>
</svg>
